<?xml version="1.0" encoding="UTF-8"?>
<svg id="Camada_1" data-name="Camada 1" xmlns="http://www.w3.org/2000/svg" viewBox="0 0 15 17">
  <defs>
    <style>
      .cls-1 {
        opacity: .13;
      }

      .cls-2 {
        fill: #fff;
      }

      .cls-3 {
        fill: #1d253a;
      }

      .cls-4 {
        fill: #1c1e1b;
      }

      .cls-5 {
        fill: #6a6c6e;
      }

      .cls-6 {
        fill: #b2b3b8;
      }

      .cls-7 {
        fill: #d2d4d8;
      }

      .cls-8 {
        fill: #fcee21;
      }
    </style>
  </defs>
  <g>
    <path class="cls-7" d="m7.69,12.48c-.96-.43-2.69-3.49-2.69-5.66,0-1.55,1.2-2.81,2.66-2.81s2.67,1.26,2.67,2.81c0,2.22-1.68,5.22-2.64,5.66Z"/>
    <path class="cls-8" d="m7.66.5C4.26.5,1.5,3.33,1.5,6.81s2.78,9.19,6.19,9.19,6.14-5.7,6.14-9.19S11.07.5,7.66.5h0Z"/>
  </g>
  <g class="cls-1">
    <path class="cls-4" d="m6.73,14.89c-2.79-1.82-3.23-3.36-3.25-3.42-.12-.33-.97-2.59-1.2-3.47-.21-.8-.02-2.17,0-2.32.41-1.16,1.44-3.29,2.63-3.74.99-.37,1.78-.55,2.23-.63l-.41,13.57Z"/>
    <path class="cls-5" d="m7.38,1.78h0,0m-.76.15l-.37,12.01c-1.95-1.46-2.29-2.6-2.29-2.61,0-.03-.03-.1-.04-.13-.34-.91-.98-2.63-1.16-3.33-.13-.48-.09-1.39,0-2.06.43-1.2,1.39-3.05,2.32-3.4.6-.23,1.13-.38,1.54-.48m-3.85,3.82h0,0M7.29.79s-.04,0-.05,0c-.49.07-1.37.25-2.5.68-1.68.63-2.81,3.71-2.93,4.06,0,.02-.01.04-.02.07-.03.24-.22,1.63,0,2.52.24.92,1.11,3.21,1.19,3.44,0,.01,0,.02.01.03.05.18.59,1.9,3.67,3.85.06.04.13.06.19.06.18,0,.35-.14.36-.35l.43-13.99c0-.21-.16-.37-.36-.37h0Z"/>
  </g>
  <path class="cls-6" d="m6.89,9.51s-2.18.55-3.54-.5-1.4-3.3-1.4-3.3c0,0,2.18-.55,3.54.5s1.4,3.3,1.4,3.3Z"/>
  <path class="cls-3" d="m7.2,9.66s-2.18.55-3.54-.5-1.4-3.3-1.4-3.3c0,0,2.18-.55,3.54.5s1.4,3.3,1.4,3.3Z"/>
  <ellipse class="cls-2" cx="3.5" cy="6.48" rx=".44" ry=".72" transform="translate(-3.56 8.61) rotate(-78.46)"/>
  <path class="cls-6" d="m8.27,9.5s2.16.61,3.56-.4,1.49-3.25,1.49-3.25c0,0-2.16-.61-3.56.4s-1.49,3.25-1.49,3.25Z"/>
  <path class="cls-3" d="m7.96,9.64s2.16.61,3.56-.4,1.49-3.25,1.49-3.25c0,0-2.16-.61-3.56.4s-1.49,3.25-1.49,3.25Z"/>
  <ellipse class="cls-2" cx="11.76" cy="6.57" rx=".72" ry=".44" transform="translate(-.95 2.11) rotate(-9.85)"/>
  <ellipse class="cls-5" cx="8.28" cy="10.83" rx=".3" ry=".5" transform="translate(-4.8 6.98) rotate(-36.19)"/>
  <ellipse class="cls-5" cx="7.05" cy="10.83" rx=".5" ry=".3" transform="translate(-5.85 10.13) rotate(-53.81)"/>
  <rect class="cls-5" x="6.43" y="12.73" width="2.46" height=".2"/>
  <path class="cls-5" d="m6.43,12.93h2.46s-.29.15-1.23.15-1.23-.15-1.23-.15Z"/>
</svg>