<svg width="49" height="37" viewBox="0 0 49 37" fill="none" xmlns="http://www.w3.org/2000/svg"><path d="M25.19 8.36c-11.15 0-15.88 7.1-15.88 7.1.68-.22 1.4-.27 2.1-.16 0 0-4.14 4.18-6.2 9.86 0 0 5.13-.63 9.4 2.09-1.05-8.88 7.12-12.05 10.08-9.95-.4-1.17-1.83-3.06-5.58-2.24 3.34-3.48 9.97-1.98 13.36 2.21.24-.65.4-1.33.47-2.02 0 0 1.93 1 2.47 2.64.13-1.08 1.01-2.38 1.01-2.38s.73.95 1.21 2.57a3.3 3.3 0 013.12-1.32s-4.42-8.4-15.56-8.4z" fill="#5F5F68"/><path d="M19.1 15.05c-4.8 1.34-7.77 4.92-8.96 10.42 1.59.32 3.1.92 4.47 1.77-1.05-8.87 7.12-12.04 10.08-9.95-.41-1.17-1.83-3.05-5.58-2.24z" fill="#fff"/><path d="M30.22 9c2.95 1.24 5.85 2.8 7.76 7.02l1.18.91c.51-.17 1.05-.23 1.58-.16 0 0-3.06-5.84-10.52-7.78z" fill="#636363"/><path d="M19.41 10.5C16.6 6.4 12.74 5 12.74 5s-2.94 2.09-2.2 6.91c.53-2.74 2.1-4.1 2.1-4.1s1.88 1.4 2.66 4.21c.79 2.82 4.11-1.51 4.11-1.51z" fill="#5F5F68"/><path d="M38.28 19.6c.6-1.37 1.74-1.42 1.74-1.42a6.4 6.4 0 01-.77 2.44c-.25-.4-.58-.75-.97-1.02zM26.57 21.05c6.5 1.19 7.16 8.74 10.9 8.74 2.28 0 3.11-1.33 3.11-1.33-1.47.2-2.53-1.08-2.61-1.96-.08-.88.11-2.02.11-2.02s2 .1 2.86.76c.8-.46 1.81-.56 1.81-.56s-1.07-1.69-3.87-2.5c-.36.8-1.26 1.55-1.26 1.55s-1.76-2.79-6.02-3.8c.3.56.49 1.17.54 1.8 0 0-1.96-1.55-5.57-.68z" fill="#fff"/><path d="M26.33 24.57c-.76-.86-.6-1.69-.6-1.69s.37-.38 1.48-.38c2.36 0 4.48 4.2 6.37 5.96-2.7-.94-7.57 1.88-8.49-3.37.84 1.48 2.01 1.49 2.01 1.49-.17-.38-.23-.8-.17-1.22.73.78 2.19.81 2.19.81a6.8 6.8 0 01-2.15-3c-.55.56-.64 1.4-.64 1.4z" fill="#fff"/><path d="M25.69 21.43c-3.7 1.15-1.54 8.7 3.44 8.13 4.98-.58 7.12.9 7.99 3.18a8.56 8.56 0 00-4.62-1.35 2.76 2.76 0 011.59 1.96 4.78 4.78 0 00-3.33-1.32c-2.65 0-5.4.98-7.67.02-2.44-3.31-1.45-6.57-1.45-6.57-1.06.57-1.28 1.77-1.28 1.77s-.73-5.88 5.33-5.82z" fill="#fff"/><path d="M37.12 32.74c-5.24-6.26-13.74 2.72-15.48-7.26 0 0-1 3.26 1.45 6.57 2.28.96 5.02-.02 7.67-.02 1.24 0 2.43.46 3.33 1.32a2.76 2.76 0 00-1.59-1.96c1.64 0 3.24.47 4.62 1.35z" fill="#5F5F68"/><path d="M26 15.43c.9 2.05 1.9 3.2 1.9 3.2s1.24.18 2.37-.34c0 0-1.2-2.09-4.27-2.86z" fill="#fff"/><path d="M29.17 8.74C32.13 10 34 11.5 35.12 15.02l1.76.4c.7 1.3 3.27 1.27 3.87 1.34 0 0-3.39-6.48-11.58-8.02zM32.52 6.65c1.06-1.9 2.46-2.28 2.46-2.28s1.82 2.22 1.94 5.9a12.91 12.91 0 00-3.54-1.89c.7-.06 1.4.02 2.06.25a5.98 5.98 0 00-1.12-3.09s-.69.16-1.8 1.1zM41 27.64a6.94 6.94 0 001.52-2.05c-.42.08-.83.22-1.21.4a3.98 3.98 0 00-.31 1.65z" fill="#ED1D49"/><path d="M35.65 0l-.51.25a15.45 15.45 0 00-3.48 2.24 18.95 18.95 0 00-2.2 2.17l-.33.4s-4.9-.01-7.1 1.81c3.52-.8 7.79 0 7.79 0l.31-.45.13-.17.14-.18.3-.36.62-.7a17.3 17.3 0 012.87-2.39c.36-.23.73-.44 1.1-.64a11.9 11.9 0 012.35 3.82 13.91 13.91 0 01.92 4.37v.6l-.01.47.38.26.07.05.08.06.16.12a7.26 7.26 0 01.95.83 11.5 11.5 0 012.02 2.69c.23.43.42.88.58 1.34a20.55 20.55 0 01-1.15 3.59l-.11.25-.11.23-.34.67.62.4c.68.42 1.3.9 1.88 1.46l.41.42c.14.14.27.3.4.45a9.22 9.22 0 012.06 4.8 15.9 15.9 0 00-3.37 1.86 18.15 18.15 0 00-3.29 2.97 17.98 17.98 0 015.66-3c.67-.22 1.35-.38 2.04-.49l.61-.1v-1.06a7.55 7.55 0 00-.14-1.05 10.8 10.8 0 00-2.32-4.97c-.14-.18-.3-.35-.45-.52a13.03 13.03 0 00-2.03-1.77 18.9 18.9 0 00.97-2.83l.29-1.2.04-.2-.06-.21a11 11 0 00-1.8-3.45 13.2 13.2 0 00-2.37-2.4l-.04-.04-.01-.3a13.71 13.71 0 00-.24-2.14 15.62 15.62 0 00-1.36-4.07A14.05 14.05 0 0035.65 0z" fill="#ED1D49"/><path d="M40.67 16.63l-.09-.18.1.18zM40.7 16.68l-.03-.05.03.05zM40.71 16.7v-.03.03zM40.75 16.76l-.04-.06.04.06zM36.88 16.26c.3.58.56 1.2.74 1.83a3.3 3.3 0 013.12-1.33 4.14 4.14 0 00-3.86-.5zM32.94 15.25c-3.96-4.9-12.73-6.07-18.43.13a5.7 5.7 0 014.6-.32l.01-.01c3.35-3.46 9.96-1.96 13.35 2.23.24-.66.4-1.34.47-2.03z" fill="#fff"/><path d="M19.46 34.45a28.08 28.08 0 00-7.25-4.53 31.12 31.12 0 00-5.47-1.76 34.58 34.58 0 00-4.75-.7 27.68 27.68 0 013.8-8.6l.2-.3.2-.26 1.11-1.44L5.5 17l-.82.06.01-.03a19.93 19.93 0 013.42-3.41l.32-.25v-.78-.4a18.66 18.66 0 01.24-2.35c.15-1.03.4-2.05.73-3.04.32-.98.76-1.9 1.3-2.77a8.64 8.64 0 011.67-1.92A24.37 24.37 0 0115.9 3.9a19.36 19.36 0 013 2.35l.18.2.09.09.06.08.35.39c-2.86-4.95-7.5-6.75-7.5-6.75l-.35.27c-.95.72-1.76 1.6-2.4 2.6-.62.99-1.12 2.04-1.49 3.14a19.9 19.9 0 00-1 5 22.13 22.13 0 00-.06 1.28v.04l-.36.3a25.96 25.96 0 00-1.9 1.81c-.4.44-.78.89-1.14 1.36a9.5 9.5 0 00-.96 1.58l-.6 1.25 1.39-.1.72-.05a27.98 27.98 0 00-2.99 6.44c-.3.94-.55 1.9-.75 2.85l-.19.98h.98c1.85-.04 3.7.08 5.53.35 1.84.27 3.65.71 5.41 1.32a27.55 27.55 0 017.41 3.93c.76.56 1.46 1.2 2.11 1.87-.6-.73-1.26-1.4-1.98-2.03zM35.38 13.03c.06.67-.02 1.35-.25 2-.9-1.5-3.31-3.1-3.31-3.1s.15 2.28-.43 3.91l1.18 1.14c.18-.56.3-1.14.37-1.73a5.97 5.97 0 012.47 2.64c.8-.96 1.01-2.38 1.01-2.38.41.58.74 1.21.98 1.88l1.05-.55c-.84-2.4-3.07-3.81-3.07-3.81z" fill="#fff"/></svg>