<?xml version="1.0" encoding="utf-8"?>
<!-- Generator: Adobe Illustrator 26.0.1, SVG Export Plug-In . SVG Version: 6.00 Build 0)  -->
<svg version="1.1" id="Capa_1" xmlns="http://www.w3.org/2000/svg" xmlns:xlink="http://www.w3.org/1999/xlink" x="0px" y="0px"
	 viewBox="0 0 447.7 447.7" style="enable-background:new 0 0 447.7 447.7;" xml:space="preserve">
<style type="text/css">
	.st0{fill:#FFFFFF;}
</style>
<g>
	<g>
		<path class="st0" d="M189.3,354.4c-0.5-1.3-0.6-2.4-0.5-3.2c0.2-0.9-0.4-1.6-1.7-2.2c-1.3-0.6-1.9-1-1.9-1.3
			c0-0.3-0.9-0.6-2.8-0.7c-1.8-0.2-2.8-0.2-2.8-0.2h-3.1h-2.6h-69.1c-10.6,0-19.6-3.8-27.1-11.3c-7.5-7.5-11.3-16.6-11.3-27.1v-169
			c0-10.6,3.8-19.6,11.3-27.1c7.5-7.5,16.6-11.3,27.1-11.3h76.8c2.1,0,3.7-0.5,4.9-1.6c1.2-1,2-2.6,2.4-4.7c0.4-2.1,0.6-4,0.7-5.6
			c0.1-1.7,0-3.8-0.1-6.4c-0.2-2.6-0.2-4.2-0.2-4.8c0-2.1-0.8-3.9-2.3-5.4c-1.5-1.5-3.3-2.3-5.4-2.3h-76.8c-19,0-35.3,6.8-48.8,20.3
			c-13.5,13.5-20.3,29.8-20.3,48.8v169c0,19,6.8,35.3,20.3,48.8c13.5,13.5,29.8,20.3,48.8,20.3h76.8c2.1,0,3.7-0.5,4.9-1.6
			c1.2-1,2-2.6,2.4-4.7c0.4-2.1,0.6-4,0.7-5.6c0.1-1.7,0-3.8-0.1-6.4C189.4,356.6,189.3,355,189.3,354.4z"/>
		<path class="st0" d="M407.4,213L276.9,82.5c-3-3-6.6-4.6-10.8-4.6s-7.8,1.5-10.8,4.6c-3,3-4.6,6.6-4.6,10.8v69.1H143.2
			c-4.2,0-7.8,1.5-10.8,4.6c-3,3-4.6,6.6-4.6,10.8v92.2c0,4.2,1.5,7.8,4.6,10.8c3,3,6.6,4.6,10.8,4.6h107.5v69.1
			c0,4.2,1.5,7.8,4.6,10.8c3,3,6.6,4.6,10.8,4.6c4.2,0,7.8-1.5,10.8-4.6l130.6-130.6c3-3,4.6-6.6,4.6-10.8
			C412,219.7,410.5,216.1,407.4,213z"/>
	</g>
</g>
</svg>
