<?xml version="1.0" ?><!DOCTYPE svg  PUBLIC '-//W3C//DTD SVG 1.0//EN'  'http://www.w3.org/TR/2001/REC-SVG-20010904/DTD/svg10.dtd'><svg enable-background="new 0 0 32 32" height="32px" id="Layer_1" version="1.0" viewBox="0 0 32 32" width="32px" xml:space="preserve" xmlns="http://www.w3.org/2000/svg" xmlns:xlink="http://www.w3.org/1999/xlink"  fill="#fff"><path d="M14.434,18.655v8.665c0,0.678-0.547,1.227-1.227,1.227c-0.678,0-1.227-0.549-1.227-1.227v-5.707l-9.889,9.892  c-0.24,0.239-0.553,0.358-0.867,0.358s-0.627-0.119-0.865-0.358c-0.479-0.479-0.479-1.255,0-1.733l9.891-9.891H4.543  c-0.678,0-1.227-0.549-1.227-1.226s0.549-1.226,1.227-1.226h8.664C13.887,17.43,14.434,17.979,14.434,18.655z M18.654,14.706h8.666  c0.678,0,1.227-0.549,1.227-1.226s-0.549-1.226-1.227-1.226h-5.707L31.641,2.229c0.479-0.479,0.479-1.254,0-1.733  c-0.479-0.479-1.254-0.479-1.732,0L19.881,10.522V4.815c0-0.677-0.549-1.226-1.227-1.226c-0.676,0-1.225,0.549-1.225,1.226v8.665  C17.43,14.157,17.979,14.706,18.654,14.706z M21.75,19.881h5.707c0.678,0,1.225-0.549,1.225-1.226s-0.547-1.226-1.225-1.226h-8.664  c-0.68,0-1.227,0.549-1.227,1.226v8.665c0,0.678,0.547,1.227,1.227,1.227c0.676,0,1.225-0.549,1.225-1.227v-5.707l9.891,9.892  c0.24,0.239,0.553,0.358,0.865,0.358c0.314,0,0.627-0.119,0.867-0.358c0.479-0.479,0.479-1.255,0-1.733L21.75,19.881z M13.344,3.59  c-0.676,0-1.225,0.549-1.225,1.226v5.707L2.092,0.495c-0.479-0.479-1.256-0.479-1.732,0c-0.479,0.479-0.479,1.254,0,1.733  l10.025,10.026H4.68c-0.678,0-1.227,0.549-1.227,1.226s0.549,1.226,1.227,1.226h8.664c0.678,0,1.227-0.549,1.227-1.226V4.815  C14.57,4.139,14.021,3.59,13.344,3.59z"/></svg>