<?xml version="1.0" encoding="utf-8"?>
<!-- Generator: Adobe Illustrator 26.0.1, SVG Export Plug-In . SVG Version: 6.00 Build 0)  -->
<svg version="1.1" id="Capa_1" xmlns="http://www.w3.org/2000/svg" xmlns:xlink="http://www.w3.org/1999/xlink" x="0px" y="0px"
	 viewBox="0 0 612 612" style="enable-background:new 0 0 612 612;" xml:space="preserve" fill="#fff">
<style type="text/css">
	.st0{fill:#fff;}
</style>
<g>
	<path d="M578.8,59.8v-1H32.9v1C15.3,61.1,2.1,76,0,94.2v381.6c0,7.3,1.8,13.5,4.8,19.1c6.9,12.9,17.1,19.4,31.1,19.4h539.8
		c14.1,0,24.3-6.5,31.1-19.4c3.1-5.8,5.1-12.1,5.1-19.1V94.2C609.9,76,595.8,61.1,578.8,59.8z M578.8,475.7c0,2.2-0.9,3.2-3,3.2
		H35.9c-2.1,0-3-1-3-3.2V94.2h545.8V475.7z"/>
	<path d="M470,553.2c0,9.3-9.7,16.5-21.7,16.5H163.3c-12,0-21.3-7.2-21.3-16.5s9.3-16.5,21.3-16.5h285.1
		C460.3,536.7,470,543.9,470,553.2z"/>
</g>
<line class="st0" x1="378.8" y1="512" x2="232.9" y2="512"/>
</svg>
