<svg viewBox="0 0 187 187" xmlns="http://www.w3.org/2000/svg">
    <g clip-path="url(#clip0bfg)">
        <path d="M93.5 187a93.5 93.5 0 100-187 93.5 93.5 0 000 187z" fill="#FA305C" />
        <path d="M160.05 93.5a66.55 66.55 0 11-133.1 0 66.55 66.55 0 01133.1 0z" fill="#fff" stroke="#fff" stroke-width="4.93" />
        <path
                d="M83.17 122.16c0 .45-.09 1.02-.27 1.7a30.3 30.3 0 01-1.07 3.62 4.77 4.77 0 01-2.65 2.47c.9.48 1.34 1.2 1.34 2.17 0 .4-.07.85-.2 1.37l-.75 2.73c-.46 1.65-1.11 2.85-1.97 3.6-.9.82-2.2 1.22-3.87 1.22H57.6l5.75-21.41h16.19c2.42 0 3.63.84 3.63 2.53zm-7.26 3H68.5l-.78 2.86h7.41l.78-2.86zM74 132.3h-7.42l-.77 2.88h7.4l.78-2.88zm32.1-12.67l-1.5 5.53H93.42l-.74 2.8h9.67l-1.22 4.52h-9.67l-2.3 8.56h-6.72l5.74-21.41h17.92zm23.21 0l-1.49 5.53h-13l-2.71 10.08h7.38l1.9-7.05h6.64l-1.9 7.05c-.64 2.32-1.56 3.89-2.77 4.7-1.11.74-2.92 1.1-5.42 1.1h-7.38c-1.65 0-2.85-.13-3.6-.41-1.3-.46-1.94-1.34-1.94-2.65 0-.71.15-1.63.45-2.74l2.7-10.08c.6-2.22 1.55-3.73 2.84-4.52 1.1-.67 2.87-1.01 5.3-1.01h13z"
                fill="#080C1B"
        />
        <g clip-path="url(#clip1bfg)">
            <path
                    d="M52.45 75.99c-5.72 12.43-7.82 21.72-7.82 21.72s25.75-2.65 42.73 16.79c0 0 13.03-5.86 31.89.32 0 0 10.63-13.4 23.93-13.7 0 0-2.26-10.68-10.37-19.56 1.74-4.06 2.59-9.3 2.59-9.3s-1.34-3.78-9.87-11.66c-.26-14.03-8.45-20.94-8.45-20.94s-8.22 3.36-13.02 10.69c0 0-8.54.16-15.48 2.16l-5.11.28s-3.23-6.4-15.12-10.25c0 0-9.12 2.53-9.97 22.7 0 0-4.98-1.14-8.9 10.74 0 .01.4.13 2.97.01z"
                    fill="#080C1B"
            />
            <path
                    d="M83.13 60.13c-5.9-8.6-13.98-11.53-13.98-11.53S63 52.97 64.56 63.07c1.11-5.74 4.4-8.57 4.4-8.57s3.93 2.91 5.56 8.8c1.63 5.9 8.6-3.17 8.6-3.17z"
                    fill="#5F5F68"
            />
            <path
                    d="M95.2 55.64c-23.32 0-33.22 14.86-33.22 14.86a9.43 9.43 0 014.4-.32S57.71 78.9 53.4 90.79c0 0 10.74-1.3 19.66 4.37-2.19-18.57 14.9-25.2 21.1-20.82-.85-2.45-3.83-6.4-11.68-4.7 6.99-7.26 20.86-4.13 27.95 4.65.5-1.37.83-2.8.98-4.24 0 0 4.04 2.11 5.17 5.53.27-2.25 2.12-4.98 2.12-4.98s1.52 1.98 2.52 5.38a6.93 6.93 0 016.53-2.77s-9.23-17.57-32.55-17.57z"
                    fill="#5F5F68"
            />
            <path
                    d="M82.48 69.64c-10.07 2.8-16.29 10.29-18.76 21.8 3.3.67 6.47 1.93 9.34 3.71-2.2-18.57 14.9-25.2 21.09-20.82-.84-2.45-3.82-6.4-11.67-4.7z"
                    fill="#fff"
            />
            <path
                    d="M105.72 56.95c6.2 2.6 12.25 5.89 16.26 14.7l2.46 1.92c1.07-.38 2.2-.5 3.31-.36 0 0-6.4-12.19-22.03-16.26z"
                    fill="#636363"
            />
            <path
                    d="M122.6 79.16c1.26-2.87 3.63-2.97 3.63-2.97a13.36 13.36 0 01-1.6 5.1 7.55 7.55 0 00-2.02-2.13zM98.1 82.19c13.61 2.49 14.96 18.3 22.81 18.3 4.77 0 6.5-2.79 6.5-2.79-3.08.41-5.3-2.28-5.47-4.12a19.7 19.7 0 01.24-4.23s4.16.2 5.97 1.6c1.66-.95 3.8-1.16 3.8-1.16s-2.25-3.54-8.1-5.25c-.75 1.69-2.64 3.26-2.64 3.26s-3.7-5.84-12.6-7.95a9.77 9.77 0 011.14 3.75s-4.1-3.23-11.65-1.41z"
                    fill="#fff"
            />
            <path
                    d="M97.59 89.56c-1.6-1.8-1.26-3.53-1.26-3.53s.78-.8 3.1-.8c4.94 0 9.39 8.78 13.34 12.48-5.67-1.98-15.85 3.9-17.76-7.07 1.76 3.1 4.2 3.11 4.2 3.11a4.74 4.74 0 01-.35-2.54c1.51 1.63 4.58 1.68 4.58 1.68-3.16-2.26-4.5-6.25-4.5-6.25a5.48 5.48 0 00-1.35 2.92z"
                    fill="#fff"
            />
            <path
                    d="M96.25 82.97c-7.73 2.42-3.22 18.22 7.2 17.01 10.41-1.2 14.88 1.88 16.71 6.66a17.93 17.93 0 00-9.65-2.82 5.78 5.78 0 013.32 4.1 10 10 0 00-6.97-2.75c-5.55 0-11.28 2.05-16.05.04-5.1-6.93-3.02-13.75-3.02-13.75a5.77 5.77 0 00-2.7 3.7s-1.5-12.3 11.16-12.19z"
                    fill="#fff"
            />
            <path
                    d="M120.16 106.65c-10.95-13.11-28.74 5.69-32.37-15.19 0 0-2.09 6.82 3.02 13.75 4.77 2.01 10.5-.04 16.05-.04a10 10 0 016.97 2.75 5.77 5.77 0 00-3.32-4.1c3.42 0 6.77.98 9.65 2.83zM96.9 70.43a28.02 28.02 0 003.98 6.7s2.6.37 4.95-.72c0 0-2.52-4.36-8.93-5.98z"
                    fill="#fff"
            />
            <path
                    d="M103.53 56.44c6.2 2.6 10.1 5.76 12.45 13.15l3.67.84c1.48 2.72 6.84 2.64 8.1 2.78 0 0-7.08-13.56-24.22-16.77zM110.55 52.06c2.2-3.98 5.14-4.76 5.14-4.76s3.82 4.66 4.06 12.35a27.02 27.02 0 00-7.42-3.97 10.2 10.2 0 014.32.52 12.51 12.51 0 00-2.35-6.46s-1.43.34-3.75 2.32zM128.28 95.97a14.62 14.62 0 003.2-4.27 9.8 9.8 0 00-2.55.85 8.36 8.36 0 00-.65 3.42z"
                    fill="#FA305C"
            />
            <path
                    d="M117.1 38.14l-1.09.53a32.56 32.56 0 00-7.27 4.68 38.88 38.88 0 00-4.6 4.54c-.24.26-.47.55-.7.84 0 0-10.25-.02-14.86 3.8 7.36-1.7 16.3-.01 16.3-.01l.66-.94.26-.35.3-.38.61-.75a34.7 34.7 0 019.66-7.83 25.16 25.16 0 014.9 8 29.06 29.06 0 011.92 9.8v.61l-.03.97.8.55.15.1.17.12.34.26a19.13 19.13 0 011.98 1.74 21.76 21.76 0 014.23 5.63c.47.9.87 1.84 1.2 2.8a38.76 38.76 0 01-1.13 4.18 37.67 37.67 0 01-1.27 3.34l-.23.52-.24.5-.7 1.4 1.32.82a23.8 23.8 0 013.92 3.06c.3.28.58.59.87.88a19.3 19.3 0 012.26 2.94 19.45 19.45 0 012.87 8.06 35.01 35.01 0 00-7.04 3.88c-1.28.89-2.5 1.86-3.65 2.9a31.5 31.5 0 00-3.2 3.3 30.86 30.86 0 013.7-2.62 37.5 37.5 0 018.14-3.7c1.4-.42 2.82-.75 4.26-.98l1.27-.2V99.28l-.02-.39a21.96 21.96 0 00-.99-5 22.92 22.92 0 00-4.14-7.57c-.3-.38-.62-.73-.94-1.1a26.92 26.92 0 00-4.27-3.69 42.6 42.6 0 001.3-3.47c.26-.81.52-1.63.74-2.47.21-.83.41-1.66.6-2.5l.09-.43-.14-.43a23.13 23.13 0 00-3.74-7.22 27.55 27.55 0 00-4.97-5.05l-.1-.07v-.62a28.9 28.9 0 00-.51-4.47 32.7 32.7 0 00-2.84-8.52c-.46-.9-.96-1.76-1.5-2.6-1.36-2-2.92-3.86-4.66-5.55z"
                    fill="#FA305C"
            />
            <path
                    d="M127.6 72.94l-.19-.38.2.38zM127.66 73.03l-.05-.1.05.1zM127.68 73.09l-.02-.06.02.06zM127.75 73.22l-.07-.13.07.13zM119.66 72.17c.65 1.22 1.18 2.5 1.56 3.82a6.93 6.93 0 016.54-2.77 8.7 8.7 0 00-8.1-1.05zM111.42 70.05c-8.3-10.23-26.64-12.7-38.56.28 2-1.24 5.54-1.95 9.6-.68l.05-.02c7-7.23 20.84-4.1 27.92 4.67.5-1.37.83-2.8.99-4.25z"
                    fill="#fff"
            />
            <path
                    d="M83.22 110.24a51.32 51.32 0 00-4.69-3.68 58.69 58.69 0 00-10.47-5.8 64.66 64.66 0 00-11.46-3.68 72.15 72.15 0 00-9.93-1.49 57.72 57.72 0 017.96-18.02l.4-.58.4-.54 2.35-3.03-3.8.29-1.71.12a45.44 45.44 0 017.18-7.19l.67-.52-.03-.87v-.78a43.92 43.92 0 01.5-5.74c.34-2.17.85-4.3 1.54-6.37a26.1 26.1 0 012.75-5.8c.95-1.5 2.13-2.85 3.48-4a44.1 44.1 0 0111.14 6.4 32.64 32.64 0 012.54 2.27l.38.4.18.19.16.17.71.81C77.5 42.44 67.8 38.7 67.8 38.7l-.75.55a20.93 20.93 0 00-5.03 5.46 29.3 29.3 0 00-3.1 6.56 41.4 41.4 0 00-1.67 6.94 58.85 58.85 0 00-.53 5.3l-.02.9v.08l-.77.64a53.35 53.35 0 00-3.97 3.79 33.4 33.4 0 00-2.39 2.85 19.57 19.57 0 00-2.02 3.29l-1.25 2.63 2.92-.22 1.5-.1a61.3 61.3 0 00-6.25 13.48 57.54 57.54 0 00-1.56 5.96l-.4 2.03h2.04c3.87-.07 7.75.18 11.58.74a62.5 62.5 0 0111.32 2.76 57.21 57.21 0 0110.62 4.93c1.7 1 3.32 2.1 4.88 3.3a35.44 35.44 0 014.41 3.94 35.71 35.71 0 00-4.14-4.27z"
                    fill="#080C1B"
            />
            <path
                    d="M116.52 65.4a9.78 9.78 0 01-.54 4.19c-1.9-3.13-6.92-6.5-6.92-6.5s.32 4.8-.91 8.21l2.48 2.38c.38-1.18.64-2.4.77-3.63a12.5 12.5 0 015.18 5.53c1.67-2.01 2.1-4.98 2.1-4.98a16.51 16.51 0 012.04 3.93l2.22-1.14c-1.75-5.04-6.42-7.99-6.42-7.99z"
                    fill="#fff"
            />
        </g>
        <path d="M211.84 8.05l-44.66 27.21-26.03 34.59 41.62-25.46 29.07-36.34z" fill="#FA305C" />
        <path
                d="M127.35 9.2L97.97 27 87.09 45.1l21.14-12.13L127.35 9.2zM78.71 143.2l-19.07 9.48-16.1 21.34 25.74-15.7 9.43-15.11z"
                fill="#fff"
        />
        <path
                d="M86.95 147.07l-44.66 27.2-26.02 34.6 41.62-25.46 29.06-36.34zM62 107.96l-63.47 38.66-36.98 49.13 59.14-36.16L62 107.96zM156.4-29.58L106.16 1.07 76.9 40.02l46.8-28.67 32.7-40.93z"
                fill="#FA305C"
        />
        <path
                d="M187.33 93.5c1.27 0 2.3 1.03 2.27 2.3a96.14 96.14 0 01-93.8 93.8c-1.27.03-2.3-1-2.3-2.27v-6.94c0-1.27 1.03-2.3 2.3-2.33a84.6 84.6 0 0082.26-82.26 2.35 2.35 0 012.33-2.3h6.94zM93.5-.33c0-1.27-1.03-2.3-2.3-2.27A96.13 96.13 0 00-2.6 91.2c-.03 1.27 1 2.3 2.27 2.3h6.94c1.27 0 2.3-1.03 2.33-2.3A84.6 84.6 0 0191.2 8.94a2.35 2.35 0 002.3-2.33V-.33z"
                fill="#fff"
        />
    </g>
    <defs>
        <clipPath id="clip0bfg"><rect width="187" height="187" rx="93.5" fill="#fff" /></clipPath>
        <clipPath id="clip1bfg"><path fill="#fff" transform="translate(42.5 37.94)" d="M0 0h100.68v76.92H0z" /></clipPath>
    </defs>
</svg>